<svg width="200" height="200" xmlns="http://www.w3.org/2000/svg">
  <!-- Background (Optional, Can Remove if Transparent) -->
  <rect width="100%" height="100%" fill="white"/>

  <!-- Brushstroke swirl (symbolizing creativity and data flow) -->
  <path d="M 50 150 Q 100 130, 150 150 Q 170 170, 130 180 Q 90 190, 50 170 Z" 
        stroke="#0C0C0C" fill="none" stroke-width="5" stroke-linecap="round" stroke-linejoin="round"/>

  <!-- First R (Roshni) in Calligraphy style -->
  <path d="M 70 50 C 60 50, 60 100, 80 100 Q 90 100, 90 50 C 90 60, 110 70, 110 50" 
        stroke="#0C0C0C" fill="none" stroke-width="6" stroke-linecap="round"/>

  <!-- Second R (Reports) in Calligraphy style -->
  <path d="M 120 50 C 110 50, 110 100, 130 100 Q 140 100, 140 50 C 140 60, 160 70, 160 50" 
        stroke="#0C0C0C" fill="none" stroke-width="6" stroke-linecap="round"/>

  <!-- Red highlight for the second R -->
  <path d="M 140 50 Q 150 60, 160 50" stroke="#C53030" fill="none" stroke-width="4" stroke-linecap="round"/>

</svg>
