<?xml version="1.0" encoding="UTF-8" standalone="no"?>
<!-- Created with Inkscape (http://www.inkscape.org/) -->

<svg
   width="131.90057mm"
   height="131.46904mm"
   viewBox="0 0 131.90057 131.46904"
   version="1.1"
   id="svg1"
   sodipodi:docname="r.svg"
   inkscape:version="1.3.2 (091e20e, 2023-11-25)"
   xmlns:inkscape="http://www.inkscape.org/namespaces/inkscape"
   xmlns:sodipodi="http://sodipodi.sourceforge.net/DTD/sodipodi-0.dtd"
   xmlns="http://www.w3.org/2000/svg"
   xmlns:svg="http://www.w3.org/2000/svg">
  <sodipodi:namedview
     id="namedview1"
     pagecolor="#ffffff"
     bordercolor="#000000"
     borderopacity="0.25"
     inkscape:showpageshadow="2"
     inkscape:pageopacity="0.0"
     inkscape:pagecheckerboard="0"
     inkscape:deskcolor="#d1d1d1"
     inkscape:document-units="mm"
     inkscape:zoom="0.91100744"
     inkscape:cx="213.4999"
     inkscape:cy="266.73767"
     inkscape:window-width="2048"
     inkscape:window-height="1056"
     inkscape:window-x="0"
     inkscape:window-y="44"
     inkscape:window-maximized="0"
     inkscape:current-layer="layer1">
    <sodipodi:guide
       position="0,131.46904"
       orientation="0,498.52185"
       id="guide3"
       inkscape:locked="false" />
    <sodipodi:guide
       position="131.90057,131.46904"
       orientation="496.89086,0"
       id="guide4"
       inkscape:locked="false" />
    <sodipodi:guide
       position="131.90057,0"
       orientation="0,-498.52185"
       id="guide5"
       inkscape:locked="false" />
    <sodipodi:guide
       position="0,0"
       orientation="-496.89086,0"
       id="guide6"
       inkscape:locked="false" />
  </sodipodi:namedview>
  <defs
     id="defs1">
    <inkscape:path-effect
       effect="skeletal"
       id="path-effect3"
       is_visible="true"
       lpeversion="1"
       pattern="M 0,0 H 1"
       copytype="single_stretched"
       prop_scale="1"
       scale_y_rel="false"
       spacing="0"
       normal_offset="0"
       tang_offset="0"
       prop_units="false"
       vertical_pattern="false"
       hide_knot="false"
       fuse_tolerance="0" />
    <inkscape:path-effect
       effect="skeletal"
       id="path-effect509"
       is_visible="true"
       lpeversion="1"
       pattern="M 0,0 H 1"
       copytype="single_stretched"
       prop_scale="1"
       scale_y_rel="false"
       spacing="0"
       normal_offset="0"
       tang_offset="0"
       prop_units="false"
       vertical_pattern="false"
       hide_knot="false"
       fuse_tolerance="0" />
    <inkscape:path-effect
       effect="skeletal"
       id="path-effect505"
       is_visible="true"
       lpeversion="1"
       pattern="M 0,0 H 1"
       copytype="single_stretched"
       prop_scale="1"
       scale_y_rel="false"
       spacing="0"
       normal_offset="0"
       tang_offset="0"
       prop_units="false"
       vertical_pattern="false"
       hide_knot="false"
       fuse_tolerance="0" />
    <inkscape:path-effect
       effect="skeletal"
       id="path-effect503"
       is_visible="true"
       lpeversion="1"
       pattern="M 0,0 H 1"
       copytype="single_stretched"
       prop_scale="1"
       scale_y_rel="false"
       spacing="0"
       normal_offset="0"
       tang_offset="0"
       prop_units="false"
       vertical_pattern="false"
       hide_knot="false"
       fuse_tolerance="0" />
    <inkscape:path-effect
       effect="skeletal"
       id="path-effect501"
       is_visible="true"
       lpeversion="1"
       pattern="M 0,0 H 1"
       copytype="single_stretched"
       prop_scale="1"
       scale_y_rel="false"
       spacing="0"
       normal_offset="0"
       tang_offset="0"
       prop_units="false"
       vertical_pattern="false"
       hide_knot="false"
       fuse_tolerance="0" />
    <inkscape:path-effect
       effect="skeletal"
       id="path-effect499"
       is_visible="true"
       lpeversion="1"
       pattern="M 0,0 H 1"
       copytype="single_stretched"
       prop_scale="1"
       scale_y_rel="false"
       spacing="0"
       normal_offset="0"
       tang_offset="0"
       prop_units="false"
       vertical_pattern="false"
       hide_knot="false"
       fuse_tolerance="0" />
    <inkscape:path-effect
       effect="skeletal"
       id="path-effect497"
       is_visible="true"
       lpeversion="1"
       pattern="M 0,0 H 1"
       copytype="single_stretched"
       prop_scale="1"
       scale_y_rel="false"
       spacing="0"
       normal_offset="0"
       tang_offset="0"
       prop_units="false"
       vertical_pattern="false"
       hide_knot="false"
       fuse_tolerance="0" />
    <inkscape:path-effect
       effect="skeletal"
       id="path-effect495"
       is_visible="true"
       lpeversion="1"
       pattern="M 0,0 H 1"
       copytype="single_stretched"
       prop_scale="1"
       scale_y_rel="false"
       spacing="0"
       normal_offset="0"
       tang_offset="0"
       prop_units="false"
       vertical_pattern="false"
       hide_knot="false"
       fuse_tolerance="0" />
    <inkscape:path-effect
       effect="skeletal"
       id="path-effect486"
       is_visible="true"
       lpeversion="1"
       pattern="M 0,0 H 1"
       copytype="single_stretched"
       prop_scale="1"
       scale_y_rel="false"
       spacing="0"
       normal_offset="0"
       tang_offset="0"
       prop_units="false"
       vertical_pattern="false"
       hide_knot="false"
       fuse_tolerance="0" />
  </defs>
  <g
     inkscape:label="Layer 1"
     inkscape:groupmode="layer"
     id="layer1"
     transform="translate(-48.514151,-77.833792)">
    <path
       d="m 56.430624,116.41249 c -3.712848,-0.77008 -6.41258,-4.17008 -7.139535,-7.77696 -0.8212,-3.55005 0.238859,-7.71332 3.288076,-9.907133 1.922444,-1.5863 4.484197,-2.41741 6.968511,-2.01545 4.021389,0.49884 7.864384,3.471433 8.699996,7.541643 0.444416,2.87384 -0.532418,5.81895 -2.116248,8.1984 -1.800221,2.61275 -4.931973,4.46402 -8.170029,4.11153 -0.51159,-0.0363 -1.020894,-0.0978 -1.530771,-0.15203 z"
       style="display:inline;mix-blend-mode:normal;fill:#c53030;fill-opacity:1;fill-rule:evenodd;stroke:none;stroke-width:0;stroke-dasharray:none;stroke-opacity:0"
       id="path505"
       inkscape:label="sun" />
    <path
       d="m 110.17631,139.6392 c -4.30763,-2.03281 -8.42148,-5.03951 -10.486975,-9.33157 -1.258504,-2.58549 -2.022131,-5.43763 -2.011934,-8.31313 0.01049,-2.95695 0.952603,-5.92575 2.786029,-8.24571 0,0 0,0 0,-1e-5 0.87468,-1.23051 1.96388,-2.3162 3.20221,-3.17977 0.13645,-0.0952 0.27157,-0.20336 0.43242,-0.24579 0,0 1e-5,0 1e-5,0 0.0276,-0.007 0.0673,-0.0112 0.0759,0.016 0.0132,0.0416 -0.0169,0.0843 -0.0383,0.12232 -0.12632,0.22486 -0.30802,0.41326 -0.48089,0.60467 -0.3597,0.39829 -0.73975,0.77772 -1.12318,1.15323 l 0,1e-5 c -3.347913,3.53777 -4.450248,8.84732 -3.485282,13.62154 0.962942,4.76419 3.961652,9.23441 8.347062,11.33035 0.70526,0.326 1.44885,0.56671 2.20721,0.73569 0.51913,0.11567 1.04932,0.22862 1.57985,0.19093 0.0635,-0.005 0.12776,-0.0111 0.1877,-0.0326 0,0 0,0 1e-5,0 0.0324,-0.0116 0.0693,-0.0297 0.0757,-0.0635 0.007,-0.0364 -0.0236,-0.0688 -0.0509,-0.0937 -1e-5,0 -1e-5,0 -1e-5,-1e-5 -0.0564,-0.0514 -0.12428,-0.0883 -0.19208,-0.12329 -0.76869,-0.3962 -1.63171,-0.56914 -2.47128,-0.77645 -3.98525,-2.03848 -7.09162,-5.68777 -8.65074,-9.88382 -1.545038,-4.15816 -1.289003,-9.08161 1.24776,-12.7206 1.14975,-1.9769 2.71487,-3.73143 4.62833,-4.98393 1.89184,-1.23834 4.22444,-1.90564 6.44497,-1.47925 l 10e-6,0 c 3.24452,-0.0687 6.42336,1.35494 8.84666,3.51346 2.40004,2.1378 4.13308,5.2143 4.01989,8.4264 0.63944,-2.59315 -0.0583,-5.38035 -1.34138,-7.72278 0,0 0,-1e-5 0,-1e-5 -1.34674,-2.45864 -3.4842,-4.58323 -6.15267,-5.44223 -0.83346,-0.79813 -2.09254,-0.95009 -3.24625,-0.92571 -1.40942,0.0298 -2.80133,0.32441 -4.16147,0.69505 -1.15146,0.31378 -2.28355,0.69604 -3.39965,1.1187 -0.29748,0.11265 -0.59306,0.23025 -0.89007,0.34411 -0.0341,0.0131 -0.0682,0.0261 -0.10269,0.0383 -0.0158,0.006 -0.0315,0.0129 -0.0482,0.0145 5.9e-4,-0.006 0.005,-0.009 0.01,-0.0116 0.0228,-0.0147 0.0468,-0.0272 0.0706,-0.0401 0,0 1e-5,-1e-5 1e-5,-1e-5 1.44978,-1.42226 3.32647,-2.39726 5.31982,-2.78619 0,0 10e-6,0 10e-6,0 1.96018,-0.38246 4.00877,-0.23088 5.92619,0.32777 1e-5,0 1e-5,0 2e-5,0 3.9039,1.13742 7.38319,3.98093 8.87658,7.76298 0.1017,-0.0568 0.17021,-0.16281 0.1944,-0.27675 0,-1e-5 0,-1e-5 0,-2e-5 0.0315,-0.14845 0.01,-0.3033 -0.0241,-0.45124 0,0 0,-10e-6 0,-10e-6 -0.10346,-0.45186 -0.32273,-0.86849 -0.54795,-1.27365 -1e-5,0 -1e-5,-1e-5 -1e-5,-1e-5 -0.57996,-1.04327 -1.28515,-2.01159 -2.00393,-2.96455 -1e-5,0 -1e-5,0 -1e-5,-1e-5 -0.2739,-0.36313 -0.55277,-0.72247 -0.8326,-1.08104 -0.0796,-0.10198 -0.15962,-0.20361 -0.23759,-0.30681 0,-10e-6 -1e-5,-10e-6 -1e-5,-2e-5 0,0 -1e-5,-1e-5 -1e-5,-1e-5 -0.0195,-0.0258 -0.0391,-0.0515 -0.0571,-0.0783 -0.004,-0.006 -0.008,-0.0118 -0.011,-0.0183 -1e-5,0 -1e-5,-10e-6 -1e-5,-10e-6 0.019,0.005 0.0309,0.0219 0.0446,0.0357 0.0342,0.0344 0.0673,0.0698 0.10045,0.10525 0.13213,0.14126 0.26222,0.28442 0.39252,0.42738 0.56327,0.61802 1.1248,1.23761 1.68789,1.85579 1.22892,0.8326 1.98087,2.21962 2.41026,3.64057 0.47635,1.57638 0.62297,3.23556 0.64548,4.88219 0.02,1.46058 -0.0717,2.9207 -0.20677,4.37516 -1e-5,0 -1e-5,10e-6 -1e-5,10e-6 -0.0449,0.48376 -0.0971,0.96685 -0.13782,1.45098 0,0 0,1e-5 0,1e-5 -0.0125,0.14835 -0.0247,0.29685 -0.0276,0.44569 0,0 0,1e-5 0,1e-5 -0.001,0.0749 -0.0124,0.15469 0.0189,0.22277 0.97088,-2.882 1.80053,-5.85437 1.8679,-8.89477 1e-5,-1e-5 1e-5,-1e-5 1e-5,-2e-5 0.0669,-3.0197 -0.84948,-6.12125 -2.90798,-8.3316 -0.10892,-0.17612 -0.21661,-0.35317 -0.31464,-0.53558 0,0 -1e-5,-1e-5 -1e-5,-1e-5 -0.0441,-0.0821 -0.0972,-0.16286 -0.11383,-0.25451 -0.002,-0.0121 -0.002,-0.0306 0.01,-0.0309 0,0 1e-5,0 2e-5,0 0.0194,-3.7e-4 0.0349,0.0161 0.0499,0.0285 1e-5,10e-6 1e-5,10e-6 1e-5,10e-6 0.0776,0.0644 0.14157,0.14354 0.20636,0.22083 0.65999,0.78736 1.21166,1.65978 1.7476,2.53631 0.74006,1.21039 1.42143,2.46351 1.91993,3.79175 0.21732,0.57903 0.40155,1.17448 0.48161,1.78775 0.0617,0.47261 0.0658,0.97096 -0.12689,1.4069 0.32293,0.92669 0.0848,1.95193 -0.0892,2.91774 0,0 0,1e-5 -1e-5,1e-5 -0.21113,1.1723 -0.51073,2.32676 -0.8228,3.47631 -0.11165,0.41127 -0.22757,0.82141 -0.33341,1.23421 0,10e-6 0,10e-6 0,2e-5 -0.0311,0.12145 -0.0624,0.24301 -0.0854,0.36626 0,1e-5 0,1e-5 0,2e-5 -0.006,0.0347 -0.0127,0.0696 -0.0147,0.10479 0,1e-5 0,1e-5 0,2e-5 0,1e-5 0,1e-5 0,2e-5 -8.9e-4,0.0161 -0.005,0.0361 0.007,0.0466 0.009,0.008 0.0225,-0.007 0.0308,-0.0159 0.0224,-0.0251 0.0396,-0.0542 0.0569,-0.083 0.0744,-0.12424 0.13733,-0.25491 0.20076,-0.38506 0.28449,-0.58377 0.54669,-1.17811 0.81128,-1.77116 1.90417,-5.42793 0.92447,-11.91902 -2.88476,-16.22925 l -10e-6,-10e-6 c 3.7679,3.5507 5.39112,9.03074 4.89185,14.18392 l -1e-5,10e-6 c -0.24082,5.54788 -2.83555,10.91457 -6.8254,14.77696 -1.96878,1.90589 -4.31108,3.44597 -6.89293,4.3639 -2.62332,0.93267 -5.48915,1.1817 -8.22846,0.68384 z m -2.14696,-10.67859 c -0.94402,-0.54147 -1.42906,-1.62414 -1.86678,-2.62052 -0.49783,-1.13321 -0.87205,-2.3168 -1.21086,-3.50727 l 0,0 c -0.11483,-0.40348 -0.22266,-0.80892 -0.33719,-1.21249 0,0 0,0 0,0 -0.0303,-0.10671 -0.0594,-0.21393 -0.0976,-0.31807 0,0 0,0 0,0 -0.009,-0.0234 -0.0163,-0.0475 -0.0306,-0.0679 -0.005,-0.007 -0.0154,-0.008 -0.0183,1.7e-4 -0.0239,0.0717 -0.004,0.15096 0.001,0.22634 0.0128,0.1884 0.0325,0.37626 0.0521,0.56407 0.0806,0.77275 0.17256,1.54426 0.26166,2.31607 -0.11747,0.26276 -0.0208,0.57039 0.0805,0.83979 0.15688,0.41721 0.3862,0.80343 0.62822,1.17773 l 0,0 c 0.58507,0.90484 1.27041,1.74152 1.99004,2.5435 l 10e-6,0 c 0.29292,0.32644 0.59268,0.64701 0.90705,0.95286 l 0,0 0,0 c 0.17148,0.16684 0.33363,0.35334 0.54522,0.46502 0,0 0,0 1e-5,0 0.0166,0.009 0.0347,0.0196 0.0531,0.0158 0,0 0,0 0,0 0.0122,-0.003 0.0147,-0.0185 0.0127,-0.0308 -0.0125,-0.0797 -0.0663,-0.14648 -0.10986,-0.21433 -0.25595,-0.39855 -0.56126,-0.76293 -0.86057,-1.13003 z m 9.33669,-2.18663 c 3.3967,-1.85513 5.31768,-5.99619 4.76209,-9.82639 0.10571,-0.30777 0.16724,-0.67277 0.42702,-0.86875 0.043,-0.0324 0.10713,-0.03 0.14245,0.0107 0.0602,0.0694 0.0804,0.16447 0.10036,0.25414 0.0785,0.35273 0.0838,0.71748 0.0903,1.07876 0,1e-5 0,1e-5 0,1e-5 0.009,0.52444 -0.006,1.04906 -0.0305,1.57301 0,0 0,1e-5 0,1e-5 -0.0525,1.12018 -0.1443,2.23911 -0.29661,3.35014 0,0 0,0 0,0 -0.0523,0.38184 -0.10692,0.76446 -0.20271,1.13778 l 0,0 0,1e-5 c -0.0259,0.1008 -0.0516,0.20314 -0.10108,0.29471 v 0 c 0,0 0,0 0,0 -0.0125,0.0232 -0.0264,0.0473 -0.0487,0.0613 -0.0143,0.009 -0.0337,0.008 -0.0469,-0.003 1.9186,-2.4672 2.03108,-6.01622 0.87524,-8.92003 l 0,0 c -0.54179,-1.36112 -1.3535,-2.63114 -2.45371,-3.59846 -0.978,-0.85986 -2.22936,-1.45987 -3.5316,-1.45946 0,0 0,0 0,0 0.24162,0.1884 0.5278,0.42424 0.50267,0.72959 -0.021,0.25547 -0.28174,0.41671 -0.51087,0.53163 -0.91436,0.45862 -1.95108,0.60345 -2.94571,0.84237 -1.24461,0.29896 -2.49848,0.61036 -3.64997,1.16938 0,0 0,0 0,0 -0.50584,0.24557 -0.99333,0.54306 -1.39118,0.94041 -0.35726,0.3568 -0.62972,0.80695 -0.72977,1.30186 -0.15624,0.18036 -0.33186,0.34818 -0.45487,0.55265 -0.005,0.009 -0.0173,0.0211 -0.0101,0.029 0.007,0.007 0.0184,-0.004 0.0268,-0.009 0,0 0,0 0,0 0.0561,-0.0334 0.10526,-0.0771 0.15571,-0.11849 0,0 0,0 0,0 0.55606,-0.45618 1.09409,-0.93422 1.65657,-1.38246 10e-6,0 10e-6,0 10e-6,0 0.77747,-0.61956 1.57925,-1.21637 2.45539,-1.68614 0,0 0,0 0,0 0.3725,-0.19973 0.76001,-0.37887 1.17093,-0.47782 0.31093,-0.0749 0.64906,-0.10465 0.94306,0.0212 0.66094,0.17808 1.30278,0.42999 1.90309,0.75889 0.39429,0.21602 0.79829,0.44618 1.07954,0.79693 0,0 0,1e-5 0,1e-5 0.0625,0.0779 0.13567,0.17499 0.10344,0.26949 0,0 0,0 0,0 -0.0316,0.0927 -0.15755,0.10565 -0.25544,0.10714 0,0 -1e-5,0 -1e-5,0 -0.62288,0.009 -1.21276,-0.27153 -1.7915,-0.50202 -1.64278,-0.0788 -3.31274,0.41631 -4.62051,1.41365 -1.21324,0.92524 -2.11972,2.24093 -2.57793,3.6963 -0.44663,1.41861 -0.4601,2.98881 0.0692,4.37871 0,10e-6 0,10e-6 0,10e-6 0.58331,1.53181 1.8428,2.75219 3.32078,3.46091 0,0 0,0 0,0 0.80004,0.61866 1.8544,0.83555 2.86302,0.76155 1.02466,-0.0752 2.01679,-0.37944 3.00201,-0.67085 z"
       style="display:inline;fill:#333333;fill-opacity:1"
       inkscape:path-effect="#path-effect505"
       inkscape:original-d="m 110.17631,139.6392 c -3.57152,-1.68543 -8.38381,-4.96124 -10.486975,-9.33157 -2.465467,-5.0651 -3.157722,-11.58364 0.774095,-16.55884 1.82005,-2.56049 6.02977,-5.40914 2.06821,-1.52934 -6.90391,7.29543 -4.010769,20.71139 4.86178,24.9519 2.94691,1.36217 6.70653,1.16314 1.33613,-0.16293 -7.78526,-3.98221 -12.815717,-14.83984 -7.40298,-22.60442 2.20138,-3.78507 6.44973,-7.35101 11.0733,-6.46318 6.2095,-0.13139 13.09277,5.52067 12.86656,11.93986 1.16643,-4.73031 -2.24543,-11.47545 -7.49405,-13.16502 -2.97285,-2.84684 -12.85834,1.82067 -11.76818,1.23325 6.15603,-6.03917 17.12586,-2.2848 20.12262,5.30456 1.68879,-0.94285 -7.60829,-10.95822 -1.29441,-4.0266 4.79575,3.24916 2.45207,14.4724 2.70245,15.01739 1.8773,-5.57265 3.45047,-12.40461 -1.04007,-17.22639 -2.2619,-3.65751 5.20273,5.91295 3.85996,8.95107 0.87236,2.50337 -3.22476,12.58382 -0.23872,5.89089 1.89662,-5.40641 0.96162,-11.87699 -2.88477,-16.22926 3.84726,3.62548 5.39137,9.02819 4.89185,14.18392 -0.47211,10.87617 -10.41337,21.92085 -21.9468,19.82471 z m -2.14696,-10.67859 c -2.89464,-1.6603 -4.23023,-13.1406 -3.24651,-4.61958 -0.71769,1.60535 6.83228,9.0175 3.24651,4.61958 z m 9.33669,-2.18663 c 3.5093,-1.91663 5.32392,-5.95315 4.76209,-9.82639 1.41251,-4.11226 0.52195,7.27687 0.0336,6.88918 4.00322,-5.14788 0.0341,-13.97955 -5.11007,-13.97795 2.93997,2.29237 -7.9088,1.47879 -8.72483,5.51524 -2.17604,2.51193 3.85921,-3.96309 5.94351,-3.07077 2.90518,0.78278 4.70212,2.88927 1.03912,1.43044 -7.25373,-0.34812 -10.67261,9.65812 -3.80849,12.94958 1.73521,1.34183 3.9445,0.65875 5.86503,0.0907 z"
       id="path503"
       transform="translate(15.958672,18.047197)"
       inkscape:label="enzo" />
    <path
       d="m 101.21487,148.83494 c -0.44047,-0.38402 -0.86419,-0.80751 -1.12679,-1.32955 -0.151414,-0.301 -0.240064,-0.65508 -0.136219,-0.97562 0.185959,-0.574 0.877799,-0.81948 1.480669,-0.84415 l 0,0 c 0.66448,-0.0272 1.38967,0.17419 1.78706,0.70744 0.50613,0.67914 0.13916,1.65377 -0.3438,2.34958 l -0.85989,0.40383 z"
       style="display:inline;fill:#333333;fill-opacity:1"
       inkscape:path-effect="#path-effect503"
       inkscape:original-d="m 101.21487,148.83494 c -4.596362,-4.00731 4.62314,-4.3601 1.66092,-0.0923 l -0.85989,0.40383 z"
       id="path501"
       transform="translate(15.958672,18.047197)"
       inkscape:label="dot" />
    <g
       id="g4"
       style="display:inline"
       inkscape:label="r">
      <path
         d="m 140.57164,190.50137 c 0.019,-0.29729 0.32346,-0.48681 0.58702,-0.62565 0.45294,-0.23859 0.94928,-0.38265 1.44385,-0.51484 1.34219,-0.35872 2.71697,-0.57877 4.08486,-0.82172 1.14146,-0.20274 2.30689,-0.34435 3.39223,-0.75188 0.14584,-0.0548 0.29153,-0.11525 0.41797,-0.20623 0,0 0,0 0,0 0.0763,-0.0549 0.15324,-0.12762 0.1601,-0.22131 0,0 0,0 0,0 0.007,-0.0962 -0.0662,-0.17905 -0.14068,-0.24028 0,0 0,0 0,0 -0.14241,-0.11708 -0.31388,-0.193 -0.48438,-0.26314 -0.5662,0.0163 -1.13273,0.032 -1.69748,0.0757 -0.10734,0.008 -0.21528,0.0145 -0.32094,0.0352 0,0 0,0 0,0 0,0 0,0 0,0 -0.0162,0.003 -0.0364,0.002 -0.0466,0.0153 0.009,0.0102 0.0158,0.0116 0.0225,0.013 0.0758,0.0161 0.15416,0.0151 0.23161,0.0176 0,0 0,0 0,0 0.14862,0.005 0.29736,0.005 0.44605,0.003 0.45718,-0.005 0.91413,-0.0245 1.37046,-0.0528 1.17502,-0.0729 2.35031,-0.19478 3.49998,-0.44831 0.50187,-0.11068 1.00178,-0.2444 1.46982,-0.45668 0,0 0,0 1e-5,0 0.3289,-0.14918 0.66867,-0.33636 0.84326,-0.6525 0,0 0,0 0,0 0.50989,-0.10851 0.99174,-0.3205 1.46452,-0.54013 l 0,0 c 0.6264,-0.29099 1.23507,-0.61883 1.83636,-0.9587 1.23711,-0.69927 2.44146,-1.45492 3.63688,-2.22329 0,0 0,0 0,0 0.40864,-0.26265 0.81536,-0.5283 1.22484,-0.78963 0.1119,-0.0714 0.22359,-0.14326 0.33809,-0.21043 0,0 0,0 0,0 0,0 0,0 0,0 0.0277,-0.0163 0.0554,-0.0329 0.0847,-0.0461 0,0 0,0 1e-5,0 0.006,-0.003 0.0125,-0.006 0.0193,-0.007 0,0 0,0 1e-5,0 -0.006,0.0242 -0.0252,0.0368 -0.041,0.0511 -0.0374,0.0339 -0.0764,0.066 -0.11541,0.098 -0.152,0.12471 -0.30725,0.2454 -0.46243,0.36614 -0.65556,0.51011 -1.31687,1.01278 -1.97724,1.51665 -6.34743,4.20061 -13.81625,6.38845 -21.28833,7.8386 z"
         style="display:inline;fill:#0c0c0c;fill-opacity:1"
         inkscape:path-effect="#path-effect495"
         inkscape:original-d="m 140.57164,190.50137 c 0.11779,-1.84379 13.03716,-2.17376 9.46097,-3.64505 -6.62313,0.191 4.69862,0.57775 5.81872,-1.45052 3.15373,-0.67115 13.34408,-8.34015 6.00864,-2.74303 -6.40009,4.23546 -13.89345,6.40343 -21.28833,7.8386 z"
         id="path494"
         transform="translate(15.958672,18.047197)" />
      <path
         d="m 129.42301,190.93706 c -2.62675,-0.50616 -5.34373,-0.31327 -7.97991,-0.76774 -0.33334,-0.35994 -0.71735,-0.74721 -1.2059,-0.79181 -0.27277,-0.0249 -0.53375,0.13658 -0.6976,0.35607 -0.15686,0.21012 -0.25583,0.4572 -0.34454,0.70394 -0.0281,0.078 -0.0518,0.15801 -0.0884,0.23241 0,1e-5 -10e-6,2e-5 -10e-6,3e-5 -0.008,0.0161 -0.0151,0.0357 -0.0317,0.0425 -1e-5,0 -2e-5,0 -3e-5,1e-5 -0.0121,0.005 -0.0216,-0.0111 -0.0266,-0.0232 -0.52909,-0.0753 -1.22458,-0.10153 -1.43421,-0.59311 0,-1e-5 0,-2e-5 -1e-5,-3e-5 -0.10718,-0.25138 0.0876,-0.52298 0.25421,-0.73963 0.0799,-0.10387 0.16654,-0.20334 0.23299,-0.31627 1e-5,0 1e-5,-1e-5 2e-5,-2e-5 0.0407,-0.0692 0.0776,-0.16446 0.0224,-0.22269 -0.0956,-0.10076 -0.26023,-0.0852 -0.39914,-0.0858 -0.34555,-0.001 -0.68937,0.0465 -1.03156,0.0946 0.0147,-0.1615 -0.12891,-0.29233 -0.26626,-0.37857 -0.2183,-0.13707 -0.47073,-0.21118 -0.72356,-0.26137 -0.63997,-0.12706 -1.3259,-0.0965 -1.92059,0.17194 0,1e-5 -1e-5,1e-5 -1e-5,1e-5 0.30335,-0.1956 0.71005,-0.0942 1.03642,0.0599 0,0 1e-5,0 1e-5,0 0.33755,0.15945 0.65379,0.38237 0.87538,0.6828 1e-5,0 1e-5,1e-5 1e-5,1e-5 0.0658,0.0892 0.13697,0.19311 0.11857,0.30241 -0.0161,0.0956 -0.13528,0.12907 -0.23216,0.13106 -0.68719,0.014 -1.31433,-0.38351 -1.93052,-0.68805 -0.75985,-0.65723 -1.68961,-1.0842 -2.60818,-1.49108 -10e-6,0 -2e-5,-1e-5 -3e-5,-1e-5 -1.1169,-0.49473 -2.26453,-0.91704 -3.41855,-1.3176 -1e-5,0 -1e-5,0 -2e-5,0 0,0 -10e-6,0 -10e-6,0 -0.95946,-0.33303 -1.9266,-0.6434 -2.88892,-0.96807 l 0,0 -10e-6,-1e-5 c -0.27772,-0.0937 -0.55674,-0.18483 -0.82713,-0.29796 0,0 -10e-6,0 -10e-6,0 -0.064,-0.0268 -0.12988,-0.0519 -0.18592,-0.0928 -10e-6,-1e-5 -10e-6,-1e-5 -2e-5,-2e-5 -0.0113,-0.008 -0.025,-0.0173 -0.0269,-0.0312 -0.001,-0.0104 0.0106,-0.0172 0.0206,-0.0206 -6.131372,0.79498 -12.428089,0.9035 -18.448489,-0.5038 -2.957406,-0.50707 -5.851156,-1.33388 -8.72543,-2.19523 -5e-6,0 -9e-6,0 -1.4e-5,0 -1.389998,-0.41655 -2.774433,-0.8533 -4.140267,-1.3433 -0.498781,-0.17894 -0.995502,-0.36433 -1.483111,-0.57179 -9e-6,0 -1.8e-5,-1e-5 -2.7e-5,-1e-5 -0.305218,-0.12986 -0.61406,-0.25865 -0.889296,-0.44376 -2.265809,-0.57989 -4.326616,-2.68338 -4.128991,-5.01385 -2e-6,-1e-5 -5e-6,-2e-5 -7e-6,-3e-5 -0.175328,-0.70128 0.0121,-1.44699 0.426049,-2.03959 0.112745,-0.16141 0.247907,-0.342 0.209103,-0.53502 -0.05848,-0.29089 -0.369999,-0.45164 -0.626145,-0.60141 0.01207,-0.55066 0.03226,-1.10256 -0.0075,-1.65191 -0.0065,-0.0901 -6.36e-4,-0.18684 -0.0435,-0.26633 -0.0061,-0.0112 -0.0198,-0.0199 -0.02974,-0.0119 -0.01853,0.0149 -0.02595,0.0395 -0.03432,0.0618 -0.105011,0.27935 -0.128642,0.58253 -0.17193,0.87782 -10e-7,0 -2e-6,1e-5 -2e-6,1e-5 -10e-7,1e-5 -2e-6,1e-5 -2e-6,2e-5 -0.07945,0.54195 -0.142214,1.08621 -0.200618,1.63083 0,1e-5 -10e-7,1e-5 -10e-7,2e-5 -0.14823,1.38226 -0.264277,2.76805 -0.344543,4.15592 -0.03549,0.6137 -0.06427,1.22793 -0.07254,1.8426 -0.0055,0.41075 -0.0139,0.82371 0.04154,1.23073 -0.272007,0.73777 -0.42086,1.51466 -0.646879,2.26779 -10e-7,1e-5 -3e-6,1e-5 -4e-6,1e-5 -0.02666,0.0888 -0.04995,0.18051 -0.09799,0.25984 -0.01925,0.0318 -0.06045,0.0374 -0.07538,0.003 -0.04358,-0.0993 -0.04476,-0.21183 -0.05422,-0.31988 -10e-7,-1e-5 -10e-7,-1e-5 -2e-6,-2e-5 -0.02067,-0.23606 -0.02808,-0.47309 -0.03449,-0.70997 0.238825,-0.75227 0.243836,-1.55963 0.197838,-2.34757 -0.04481,-0.76759 -0.148117,-1.53632 -0.375318,-2.27089 -0.07088,-0.22917 -0.146709,-0.46299 -0.289871,-0.65546 -0.07152,-0.0962 -0.206867,-0.17278 -0.297895,-0.0948 -0.178814,0.15312 -0.212224,0.41596 -0.260829,0.64631 -0.108696,0.51513 -0.147838,1.04237 -0.178676,1.56794 0,0 -10e-7,10e-6 -10e-7,10e-6 -0.107836,0.19186 -0.212213,0.39363 -0.378177,0.53818 -0.05802,0.0505 -0.152531,0.0782 -0.198327,0.0164 -0.139202,-0.18792 -0.09383,-0.45437 -0.103875,-0.68801 l -10e-7,-2e-5 -10e-7,-1e-5 c -0.0041,-0.0947 0.0011,-0.19231 -0.02893,-0.28216 -0.0058,-0.0172 -0.01847,-0.0391 -0.03568,-0.0333 -10e-6,1e-5 -1.9e-5,1e-5 -2.8e-5,1e-5 -0.03053,0.0104 -0.0446,0.0455 -0.06015,0.0738 -0.321488,0.58395 -0.447088,1.25533 -0.639251,1.89363 -0.245377,1.4136 -0.157953,2.85921 -0.07411,4.29149 0.0799,1.36487 0.0021,2.75797 -0.469707,4.0412 -0.43948,-2.33627 -0.211653,-4.74246 -0.184062,-7.11955 0.01343,-1.15697 0.02158,-2.31716 -0.09914,-3.46789 -0.08081,-0.77032 -0.158367,-1.60959 -0.667449,-2.19333 1e-6,0 1e-6,10e-6 2e-6,10e-6 0.161769,1.16846 0.05745,2.37291 -0.32621,3.48838 -2e-6,0 -3e-6,1e-5 -5e-6,1e-5 -0.110451,0.32113 -0.248817,0.63354 -0.33226,0.96272 -10e-7,0 -3e-6,1e-5 -4e-6,1e-5 -0.05443,0.21472 -0.06633,0.46017 0.06722,0.6369 -0.432519,0.16039 -0.883757,0.38754 -1.08935,0.80049 -0.149941,0.30117 -0.12943,0.65628 -0.0883,0.99019 0.104802,0.85091 0.05254,1.77828 -0.534434,2.40317 -3e-6,0 -7e-6,10e-6 -1e-5,10e-6 0.44899,-2.07711 -0.284686,-4.22581 -0.278017,-6.35088 0.538617,-2.11679 0.17114,-4.47967 -1.219459,-6.16406 -1.411067,-1.70918 -3.364392,-2.86388 -5.190403,-4.1201 -1.555139,-1.57851 -3.278506,-2.98957 -4.768254,-4.62993 -0.707797,-0.77936 -1.402475,-1.5944 -1.845762,-2.54932 -2e-6,0 -4e-6,-10e-6 -6e-6,-10e-6 -0.160928,-0.34667 -0.28681,-0.71844 -0.289518,-1.10063 0,-1e-5 0,-1e-5 0,-2e-5 -0.0023,-0.32493 0.108526,-0.65167 0.32272,-0.89602 0.661811,0.44567 1.308811,0.92672 2.03561,1.25593 0.09809,0.0444 0.220792,0.13244 0.305972,0.0666 4e-6,0 8e-6,0 1.2e-5,-1e-5 0.06361,-0.0492 -0.0076,-0.15182 -0.04683,-0.22203 -0.213893,-0.38273 -0.512528,-0.71081 -0.786707,-1.05295 -0.37746,-0.47102 -0.75669,-0.94137 -1.101976,-1.43646 2.394418,1.6742 4.532713,3.68487 6.764486,5.57043 4e-6,1e-5 8e-6,1e-5 1.1e-5,1e-5 1.071398,0.9052 2.145051,1.81012 3.278545,2.63623 0.392682,0.28619 0.791675,0.56612 1.218404,0.79852 0.24625,0.13411 0.507837,0.29068 0.787347,0.26837 5e-6,0 10e-6,0 1.5e-5,0 0.817345,-8.45228 0.299875,-16.9681 0.248457,-25.45966 -1.677081,0.62903 -3.029203,1.88197 -4.490834,2.9173 -1.433134,1.01515 -3.158932,1.80981 -4.890666,1.51742 -2.019184,0.36443 -4.077457,-0.46725 -5.740397,-1.66914 -4e-6,-1e-5 -8e-6,-1e-5 -1.2e-5,-1e-5 -1.694385,-1.22462 -3.130523,-2.7712 -4.772192,-4.06563 -4e-6,0 -8e-6,-1e-5 -1.2e-5,-1e-5 -0.501276,-0.19802 -0.903272,-0.58791 -1.249461,-1.001 -0.443786,-0.52955 -0.803483,-1.12497 -1.122004,-1.73808 -3e-6,-1e-5 -5e-6,-1e-5 -7e-6,-2e-5 -0.685998,-1.32047 -1.196955,-2.73287 -1.515486,-4.18641 -0.12238,-0.55846 -0.221213,-1.12606 -0.220379,-1.69776 0,0 0,-10e-6 0,-10e-6 4.85e-4,-0.33143 -0.0027,-0.72329 0.25326,-0.93379 0.0902,-0.0742 0.21758,-0.0898 0.331276,-0.0631 5e-6,0 10e-6,0 1.5e-5,1e-5 0.180508,0.0423 0.337525,0.1526 0.482155,0.26859 0.588396,0.47192 1.029119,1.10106 1.460181,1.72001 2.393694,2.05115 5.827777,2.51697 8.910598,1.85879 3.142257,-0.67087 6.048765,-2.15975 8.826514,-3.77467 1.452168,-0.45601 2.764248,-1.43592 3.436016,-2.80174 0.668232,-1.35863 0.798464,-2.91847 0.787278,-4.43249 0,-1e-5 0,-1e-5 0,-2e-5 -0.02407,-3.25721 -0.883927,-6.53089 -0.362216,-9.74614 -0.498413,-0.16343 -1.040763,0.0466 -1.505125,0.29055 -0.648758,0.34077 -1.229789,0.79608 -1.800571,1.25567 -1.165488,0.93842 -2.231626,2.05899 -3.602018,2.65985 -0.989957,1.09314 -1.970607,2.25261 -3.273731,2.94315 -1.282218,0.67946 -2.83663,0.6301 -4.232371,0.23304 -2.677457,-1.1438 -5.097243,-2.90193 -6.987727,-5.11624 -6e-6,0 -1.3e-5,-1e-5 -1.9e-5,-2e-5 -1.88799,-2.21139 -3.224465,-4.98736 -3.290699,-7.89431 0.02545,-0.55546 0.02467,-1.13214 0.243272,-1.64341 0.04581,-0.10714 0.108649,-0.21862 0.21555,-0.26499 0.08801,-0.0382 0.191176,-0.0121 0.275619,0.0334 9e-6,1e-5 1.7e-5,1e-5 2.6e-5,2e-5 0.306413,0.16523 0.511847,0.46817 0.724029,0.74416 0.323477,0.42075 0.625372,0.85763 0.941776,1.28372 0.696668,0.93818 1.440803,1.90017 2.476436,2.44147 0.460337,0.24061 0.991122,0.36457 1.504484,0.28545 0.635674,-0.098 1.198061,-0.47398 1.661857,-0.9196 7e-6,-1e-5 1.4e-5,-1e-5 2.1e-5,-2e-5 6.11392,-2.53672 11.341703,-6.86586 17.409274,-9.511529 0.211747,-0.774174 0.03067,-1.598887 -0.139245,-2.383306 -2e-6,-1e-5 -5e-6,-2e-5 -7e-6,-2.9e-5 -0.203186,-0.938015 -0.480699,-1.85828 -0.70409,-2.791689 -2e-6,-10e-6 -5e-6,-1.9e-5 -7e-6,-2.9e-5 -0.167258,-0.698859 -0.396983,-1.435365 -0.203689,-2.127475 0.05966,-0.213615 0.208099,-0.409912 0.418684,-0.479513 0.304675,-0.100699 0.638895,-0.01294 0.943246,0.08873 2.077066,1.647985 4.347934,3.145176 6.911896,3.820567 2.551406,0.672083 5.298541,0.343917 7.748216,-0.636111 4.058717,-0.535752 8.293663,0.167714 11.916362,2.074613 3.594607,1.892113 6.494866,5.240286 7.3711,9.206836 0.96972,3.12016 0.295968,6.5622 -1.186519,9.4739 -1.498607,2.94336 -3.656988,5.49723 -5.899571,7.9221 -0.988724,1.16747 -2.295884,2.01566 -3.588449,2.83409 -8e-6,1e-5 -1.6e-5,1e-5 -2.5e-5,2e-5 -1.331319,0.84296 -2.709814,1.6221 -3.943178,2.60283 -0.963227,0.76592 -1.920229,1.72995 -2.051883,2.95352 -0.06626,0.61578 0.101294,1.23968 0.385202,1.79011 0.414411,0.80344 1.037421,1.48131 1.700309,2.096 5.810686,11.85548 12.626437,23.48162 22.333745,32.43062 1.78335,1.92099 3.82967,3.58309 5.95181,5.1216 1e-5,1e-5 2e-5,1e-5 3e-5,2e-5 1.86741,1.35384 3.79071,2.66669 5.9119,3.5726 10e-6,1e-5 10e-6,1e-5 2e-5,2e-5 1.6018,1.64942 3.63317,2.81373 5.66608,3.88781 10e-6,1e-5 10e-6,1e-5 2e-5,2e-5 2.23041,1.17842 4.54183,2.19594 6.86218,3.18557 6.97486,2.7915 14.68254,3.20905 22.18209,2.76418 -0.20365,0.59739 -0.90794,0.84651 -1.51756,1.00993 -0.94214,0.25257 -1.92249,0.32674 -2.89617,0.38469 -1e-5,0 -2e-5,0 -3e-5,0 -1.0878,0.0647 -2.17775,0.0835 -3.26675,0.12337 -1e-5,0 -2e-5,0 -3e-5,0 -0.87988,0.0322 -1.76614,0.0518 -2.6292,0.226 -1.38028,0.15387 -2.77887,0.0968 -4.15084,-0.11891 -1.09505,-0.17218 -2.19359,-0.38627 -3.30119,-0.34165 -1e-5,0 -2e-5,0 -3e-5,0 -2.17242,-0.40157 -4.31415,-0.95679 -6.47971,-1.39387 -0.36999,-0.0747 -0.74012,-0.15077 -1.11426,-0.20064 -0.0912,-0.0122 -0.18313,-0.027 -0.27496,-0.0209 -0.0178,0.001 -0.039,3.2e-4 -0.0505,0.0139 -0.008,0.01 0.004,0.0235 0.0137,0.0319 0.0676,0.0591 0.15617,0.088 0.23881,0.12307 1e-5,0 2e-5,1e-5 3e-5,1e-5 0.18131,0.0769 0.36653,0.14433 0.55198,0.21067 10e-6,1e-5 2e-5,1e-5 3e-5,1e-5 0.7252,0.25943 1.45936,0.49302 2.19355,0.7258 1e-5,0 2e-5,1e-5 3e-5,1e-5 2.12031,0.59444 4.26985,1.08158 6.39074,1.67394 0.36876,0.10299 0.73817,0.20512 1.09952,0.33169 1e-5,0 1e-5,0 2e-5,1e-5 0.0896,0.0314 0.18066,0.061 0.263,0.10816 0,0 1e-5,1e-5 2e-5,1e-5 l 0,0 c 0.0165,0.009 0.0363,0.0183 0.043,0.0361 0.004,0.0114 -0.0108,0.0196 -0.0225,0.0228 -0.0839,0.0233 -0.17368,0.008 -0.26056,0.002 -0.19409,-0.014 -0.38726,-0.0385 -0.58018,-0.0639 -0.76051,-0.1004 -1.51713,-0.22827 -2.27339,-0.35682 -0.78054,-0.2561 -1.57913,-0.4884 -2.39926,-0.53558 -1e-5,0 -2e-5,0 -3e-5,0 -0.20345,-0.0117 -0.41126,-0.016 -0.60775,0.0381 l 0,0 -3e-5,1e-5 c -0.0947,0.026 -0.20759,0.0739 -0.2197,0.17136 l -1e-5,3e-5 v 0 c -0.0128,0.10338 0.0811,0.18787 0.16342,0.25175 l 0,0 c 0.161,0.12497 0.35098,0.20717 0.54166,0.27914 l 0,0 c 0.70064,0.26441 1.45205,0.36846 2.1985,0.42861 l 3e-5,0 h 0 c 1e-5,0 2e-5,0 3e-5,0 0.90221,0.016 1.78621,0.34698 2.56419,0.80412 l 0,0 c 0.10147,0.0596 0.2108,0.11718 0.27931,0.21288 0.0149,0.0208 0.028,0.0489 0.015,0.0708 -0.0163,0.0276 -0.0534,0.0337 -0.0851,0.0381 -0.17363,0.0242 -0.34959,-0.017 -0.52189,-0.0493 -0.36293,-0.068 -0.72031,-0.16289 -1.07602,-0.26197 z m -34.262243,-7.19754 c 1.357324,0.50969 2.876085,0.37872 4.244629,-0.10003 0.541236,-0.18934 1.077224,-0.40602 1.641624,-0.50723 l 0,0 c 0.54486,-0.0977 1.12006,-0.0475 1.62265,0.18449 0,0 0,0 0,0 -2.886247,-0.95943 -6.001943,-0.86172 -9.042726,-0.79418 l -10e-7,0 c -3.117576,0.0693 -6.303141,0.13773 -9.274766,-0.80753 -1.063529,-0.17368 -2.110202,-0.43722 -3.158127,-0.68845 l -2e-6,0 c -1.150061,-0.2757 -2.297002,-0.56466 -3.450085,-0.82744 -0.369755,-0.0843 -0.739558,-0.17035 -1.114212,-0.22912 -10e-7,0 -2e-6,0 -3e-6,0 -0.09221,-0.0145 -0.185117,-0.0315 -0.278346,-0.027 -0.01878,9.2e-4 -0.04053,1.9e-4 -0.05373,0.0136 -10e-7,0 -2e-6,0 -2e-6,0 -0.0091,0.009 3.05e-4,0.0243 0.0092,0.0336 0.06054,0.0632 0.14658,0.0951 0.22539,0.1332 0,0 10e-7,0 2e-6,0 0.173864,0.0841 0.352438,0.15811 0.531285,0.23104 0.700999,0.28585 1.412676,0.54472 2.124309,0.80296 5.223662,1.46934 10.570518,3.09222 15.972864,2.58207 z m -1.22193,-1.90601 c 0.752841,-0.10111 1.514806,-0.11038 2.273152,-0.15402 0.82609,-0.0475 1.657959,-0.0898 2.464572,-0.27432 0.27313,-0.0625 0.552593,-0.13537 0.780664,-0.29812 3e-6,-10e-6 6e-6,-10e-6 9e-6,-10e-6 0.148414,-0.10591 0.249769,-0.29169 0.200429,-0.46722 -10e-7,0 -2e-6,0 -3e-6,-10e-6 -0.08257,-0.29371 -0.346806,-0.49734 -0.589158,-0.68268 -10e-7,0 -2e-6,0 -4e-6,-1e-5 -0.489875,-0.37463 -1.037749,-0.6662 -1.588106,-0.94447 -7.597685,-6.72393 -14.695898,-14.18048 -19.788267,-22.95567 l -3e-6,0 c -4.15708,-6.60678 -6.795942,-14.02872 -9.901826,-21.19003 l 0,1e-5 c -0.673375,11.67691 -0.534275,23.3845 -0.895089,35.07525 4.315884,1.3149 8.307048,3.55232 12.623835,4.86425 -1.080823,-0.0168 -2.127458,-0.37018 -3.14553,-0.73348 -1.237261,-0.44153 -2.442546,-0.96728 -3.646635,-1.49257 -3e-6,0 -6e-6,0 -9e-6,0 -1.048469,-0.4574 -2.090324,-0.93494 -3.171071,-1.30975 -0.359607,-0.12472 -0.724416,-0.24386 -1.10198,-0.29198 -4e-6,-1e-5 -7e-6,-1e-5 -1e-5,-1e-5 -0.213939,-0.0273 -0.467054,-0.0482 -0.616819,0.10694 0.166159,0.30793 0.472117,0.51384 0.769769,0.69779 0.433367,0.26782 0.899529,0.47854 1.370251,0.67336 1.126743,0.46632 2.292621,0.83099 3.458709,1.18771 0.873698,0.26727 1.765061,0.48738 2.610914,0.83281 0.092,0.0376 0.185598,0.0748 0.266375,0.13265 0.02034,0.0146 0.04135,0.0305 0.05196,0.0532 0.0068,0.0145 0.0035,0.0326 -0.0078,0.0439 -2e-6,0 -5e-6,1e-5 -7e-6,1e-5 -0.05248,0.0526 -0.138128,0.0507 -0.211953,0.0588 -4e-6,0 -7e-6,0 -1e-5,0 -0.16648,0.0184 -0.334421,0.0188 -0.50191,0.0179 -3e-6,0 -7e-6,0 -1e-5,0 -1.054232,0.18468 -2.129885,-0.14308 -3.144434,-0.48396 -1.052432,-0.35361 -2.06925,-0.80503 -3.074917,-1.27544 -0.310552,-0.14527 -0.618157,-0.29726 -0.933901,-0.43086 -3e-6,0 -7e-6,0 -1e-5,-1e-5 -0.07009,-0.0297 -0.139646,-0.065 -0.21501,-0.0756 -0.01182,-0.002 -0.02961,-0.004 -0.03189,0.008 0,1e-5 -10e-7,1e-5 -2e-6,1e-5 -0.0032,0.0164 0.01253,0.0303 0.02333,0.043 2e-6,0 4e-6,1e-5 6e-6,1e-5 0.0657,0.0775 0.147914,0.13917 0.226779,0.20323 3e-6,0 6e-6,1e-5 8e-6,1e-5 0.160709,0.13055 0.325715,0.25571 0.490997,0.38042 0.624791,0.47142 1.258079,0.93146 1.890115,1.39312 6.123164,2.68175 12.621025,4.77174 19.302384,4.98235 0.158314,0.07 0.336454,0.0803 0.507631,0.10606 0.310604,0.0468 0.622507,0.0844 0.934312,0.12239 3e-6,0 7e-6,0 10e-6,0 0.762456,0.0928 1.526045,0.17866 2.284677,0.29881 0.308131,0.0488 0.616203,0.10115 0.918322,0.17893 3e-6,0 6e-6,0 1e-5,1e-5 0.169807,0.0437 0.363665,0.07 0.48098,0.20029 0.02676,0.0297 0.03262,0.0763 0.009,0.10854 -2e-6,0 -4e-6,1e-5 -6e-6,1e-5 -0.0427,0.0582 -0.114548,0.0869 -0.181354,0.11436 -3e-6,0 -6e-6,0 -9e-6,0 -0.330625,0.13585 -0.689215,0.18779 -1.041758,0.24679 -3.729017,-0.92569 -7.777851,-0.17244 -11.394425,-1.46969 l -1e-5,0 c -1.455983,-0.22233 -2.911351,-0.4575 -4.377064,-0.60244 -0.188005,-0.0186 -0.376683,-0.0432 -0.565396,-0.0343 -3e-6,0 -7e-6,0 -1e-5,0 -0.01998,9.4e-4 -0.04013,0.002 -0.05948,0.007 -3e-6,0 -7e-6,0 -1e-5,0 -0.0087,0.002 -0.02062,0.005 -0.02116,0.0144 -6.1e-4,0.0103 0.01123,0.0166 0.01994,0.0221 3e-6,0 6e-6,0 8e-6,0 0.01995,0.0126 0.04193,0.0216 0.06383,0.0303 0.241572,0.0963 0.497693,0.15046 0.750133,0.21291 4e-6,0 7e-6,0 10e-6,0 0.556187,0.13759 1.115779,0.26101 1.675646,0.38277 4.185944,1.21948 8.573329,1.54888 12.843517,2.42907 -0.03074,0.2147 0.218431,0.36086 0.433801,0.33526 0.225673,-0.0268 0.48847,-0.17122 0.480979,-0.39836 z m -6.85828,-3.21934 c -4.25126,-1.36447 -8.715289,-1.96834 -12.985473,-3.27238 l 10e-7,0 c 2.656192,0.45637 5.338457,0.75626 7.987065,1.25476 1.250939,0.23545 2.507483,0.47968 3.703794,0.91456 10e-7,0 10e-7,0 2e-6,0 0.370361,0.13463 0.745941,0.28029 1.052327,0.52812 10e-7,0 10e-7,0 10e-7,0 0.174095,0.14083 0.323231,0.36622 0.242283,0.575 z M 70.523209,121.02031 c 3.002958,-2.02449 5.962122,-4.16368 8.442227,-6.80289 2.465757,-2.62394 4.405048,-5.84886 4.969611,-9.40502 l -10e-7,0 c -2.946319,-1.18075 -6.260321,-1.18349 -9.370581,-0.55006 -3.128365,0.63711 -6.114226,1.86368 -8.936048,3.35697 1.586927,2.2233 2.187471,5.06232 1.876738,7.77615 l 0,0 c 0.200315,0.88774 0.0924,1.81417 0.02534,2.72176 l 0,0 c -0.07398,1.00132 -0.190736,2.00314 -0.15718,3.00663 10e-7,0 10e-7,0 10e-7,0 0.01207,0.3608 0.03718,0.72842 0.166387,1.0655 0.08682,0.22651 0.257702,0.4426 0.496864,0.48315 0.336989,0.0571 0.66562,-0.13158 0.952712,-0.31706 0.570461,-0.36857 1.060131,-0.84853 1.533927,-1.33513 z"
         style="display:inline;fill:#0c0c0c;fill-opacity:1"
         id="path486"
         transform="translate(15.958672,18.047197)"
         inkscape:label="T"
         inkscape:original-d="m 129.42301,190.93706 c -3.64989,-0.70331 -5.93337,-0.41492 -7.97991,-0.76774 -2.01572,-2.17657 -2.26203,0.84128 -2.39476,0.51998 -3.78779,-0.53891 1.4262,-2.39415 -2.35534,-1.86296 0.0497,-0.54477 -1.71909,-1.00575 -2.91042,-0.46799 1.12125,-0.72299 4.02102,2.54088 -0.13229,0.48816 -2.34185,-2.02556 -10.41782,-4.05783 -9.9351,-4.21931 -5.522082,0.71598 -12.473625,0.89286 -18.448489,-0.5038 -4.395172,-0.75358 -13.793297,-3.58235 -15.238145,-4.55409 -2.025208,-0.51831 -4.339544,-2.53092 -4.128991,-5.01385 -0.545125,-2.18028 1.678237,-2.20003 0.009,-3.17605 0.145205,-6.6224 -1.157725,5.70682 -0.86313,7.86961 -0.580023,1.57321 -0.842008,3.97389 -0.908972,1.50114 0.806201,-2.53945 -0.877897,-8.72495 -1.204752,-3.15448 -1.303111,2.31851 -0.02976,-3.18049 -1.444422,1.51854 -0.581522,3.3501 0.565164,5.31631 -0.543819,8.33269 -0.679972,-3.61473 0.506021,-11.11048 -0.950646,-12.78077 0.445158,3.21533 -1.117959,4.39103 -0.591261,5.08803 -2.493271,0.9246 -0.07644,2.45259 -1.712098,4.19386 0.344932,-1.59572 -0.288378,-3.04921 -0.278017,-6.35088 1.378893,-5.41912 -2.494162,-7.59032 -6.409862,-10.28416 -2.137335,-2.16946 -8.384403,-7.11839 -6.58082,-9.17593 4.223158,2.84393 1.760855,0.55358 0.406082,-1.38896 3.398157,2.37602 10.624203,9.38728 12.048808,9.27356 0.814817,-8.42614 0.299777,-16.98423 0.248457,-25.45966 -3.26615,1.22504 -5.58224,5.07619 -9.3815,4.43472 -4.348138,0.78476 -7.455382,-3.32421 -10.512613,-5.73479 -3.424896,-1.35295 -6.413508,-14.57122 -1.58045,-7.63159 5.267748,4.51392 12.581477,1.08148 17.737112,-1.91588 7.014895,-2.2028 2.960197,-11.42836 3.861078,-16.98039 -1.711484,-0.5612 -4.801135,3.28242 -6.907714,4.20607 -2.340205,2.58413 -3.887711,4.20554 -7.506102,3.17619 -5.063073,-2.16293 -10.144768,-7.14357 -10.278445,-13.01057 0.30475,-6.6526 3.414951,6.407 8.04307,1.96023 6.117481,-2.5382 11.32652,-6.85924 17.409274,-9.511529 0.664327,-2.42886 -3.018203,-8.806769 0.314892,-7.693306 4.605112,3.653785 8.939908,5.472907 14.660112,3.184456 7.92985,-1.046743 17.417961,2.818562 19.287462,11.281449 2.061921,6.63441 -2.863942,12.83065 -7.08609,17.396 -3.54984,4.19158 -14.035223,6.21473 -7.498024,12.27657 5.796406,11.82634 12.553019,23.41394 22.333745,32.43062 3.14201,3.3845 8.77498,7.37508 11.86374,8.69422 2.67977,2.75945 8.25379,5.25033 12.5283,7.07342 7.03991,2.81753 14.69208,3.20848 22.18209,2.76418 -0.6563,1.92516 -7.67714,1.21249 -10.30974,1.74399 -3.53073,0.39361 -5.05416,-0.55717 -7.45206,-0.46056 -2.73085,-0.5048 -12.90794,-3.04219 -4.92131,-0.51 2.58242,0.72399 12.90633,3.15534 4.65968,1.75353 -4.26424,-1.39911 -4.23277,0.3184 -0.32317,0.63341 1.57135,0.0278 4.87473,1.84499 1.17551,0.81462 z m -34.262243,-7.19754 c 3.558531,1.33627 5.257513,-1.46209 7.508903,-0.42277 -5.629149,-1.87121 -12.37896,0.28731 -18.317493,-1.60171 -2.99176,-0.48857 -12.908719,-3.36795 -5.164274,-0.55759 5.174645,1.45555 10.567328,3.09252 15.972864,2.58207 z m -1.22193,-1.90601 c 2.15886,-0.28994 9.294553,0.088 3.541555,-2.82086 -7.415611,-6.5628 -14.688175,-14.16717 -19.78827,-22.95567 -4.162863,-6.61597 -6.832637,-14.11333 -9.901826,-21.19003 -0.673115,11.67241 -0.534313,23.38575 -0.895089,35.07526 4.287128,1.30614 8.590984,3.63861 12.623835,4.86425 -3.42588,-0.0533 -10.792567,-4.64255 -11.682054,-3.72085 1.011352,1.87429 11.316499,3.71663 7.806277,3.69811 -3.417644,0.5987 -11.577674,-5.21117 -4.768932,-0.23782 6.051609,2.65041 12.765147,4.77628 19.302384,4.98235 0.592749,0.26216 8.040997,0.68514 3.9118,1.37619 -3.190385,-0.79198 -7.640478,-0.12316 -11.394435,-1.46969 -2.459733,-0.37561 -8.37459,-1.24182 -2.513542,0.0328 4.528495,1.31927 8.647821,1.56423 12.843517,2.42907 -0.07735,0.54018 0.929225,0.37487 0.91478,-0.0631 z m -6.85828,-3.21934 c -3.82491,-1.22763 -9.18122,-2.11063 -12.985473,-3.27238 3.366234,0.57836 13.604118,1.67686 12.985473,3.27244 z M 70.523209,121.02031 c 5.801932,-3.91147 12.24006,-8.82693 13.411838,-16.20791 -5.931513,-2.37707 -12.954496,-0.0254 -18.30663,2.80691 1.683467,2.35855 2.2014,4.94068 1.876738,7.77615 0.601231,2.66449 -1.958813,10.73627 3.018054,5.62485 z"
         inkscape:path-effect="#path-effect486" />
      <path
         d="m 116.42842,178.51351 c 1.30562,-0.74429 2.31335,-1.91009 3.36423,-2.98445 0.19819,-0.20261 0.39582,-0.4059 0.60105,-0.60137 0.11383,-0.10843 0.22182,-0.23041 0.36332,-0.2989 0,0 0,0 0,0 0.0235,-0.0114 0.0591,-0.0214 0.0704,0.002 0,0 0,0 0,0 0.0182,0.0382 -0.003,0.0835 -0.0156,0.12368 -0.0771,0.23711 -0.20542,0.45404 -0.32474,0.67295 l 0,0 c 0.80471,-0.51451 1.6857,-0.89664 2.56394,-1.27211 0.28005,-0.11973 0.5653,-0.22954 0.83345,-0.37396 0,0 1e-5,0 1e-5,0 0.0538,-0.029 0.12239,-0.0512 0.14597,-0.10756 0.0155,-0.0371 -0.0549,-0.046 -0.095,-0.0493 0.18393,0.12851 0.38085,0.30341 0.37391,0.52768 -0.006,0.19955 -0.16938,0.35709 -0.3276,0.47885 -0.54178,0.4169 -1.20529,0.63942 -1.83342,0.90919 -0.65053,0.27938 -1.3325,0.53613 -1.8605,1.00779 -0.17881,0.15974 -0.34075,0.36322 -0.36144,0.6021 0,10e-6 0,10e-6 0,10e-6 -0.023,0.26491 0.13972,0.51099 0.32652,0.70023 0.0661,-0.18237 0.12196,-0.38541 0.0578,-0.56846 -0.0432,-0.12323 -0.16077,-0.20882 -0.28768,-0.2396 -0.36078,-0.0875 -0.73856,0.0515 -1.07935,0.19876 0,0 0,0 0,0 -0.32298,0.13954 -0.66319,0.2995 -0.86393,0.58844 -0.0516,0.0743 -0.0811,0.18233 -0.0184,0.24749 0,0 0,0 0,0 0.10598,0.11016 0.28199,0.10899 0.43478,0.11348 -0.3587,-0.1226 -0.71806,0.15296 -1.04757,0.34037 -0.32621,0.18552 -0.76709,0.25966 -1.02009,-0.0175 z"
         style="display:inline;fill:#0c0c0c;fill-opacity:1"
         inkscape:path-effect="#path-effect497"
         inkscape:original-d="m 116.42842,178.51351 c 2.12493,-1.21136 5.49349,-5.71854 4.05858,-3.08589 1.62454,-1.03869 4.06316,-1.75262 3.44841,-1.80294 2.13829,1.49401 -5.67641,2.20595 -3.68253,4.22585 0.73307,-2.02292 -3.63878,0.28476 -1.7568,0.34011 -0.68633,-0.23459 -1.41798,1.03461 -2.06766,0.32287 z"
         id="path495"
         transform="translate(15.958672,18.047197)"
         inkscape:label="path495" />
    </g>
    <g
       id="g6"
       inkscape:label="c"
       style="display:inline">
      <path
         d="m 138.27195,161.27403 2.23356,-2.35158 c 0.48625,-0.23567 0.81637,-0.70154 1.13559,-1.13753 0,0 0,0 0,0 0.47839,-0.65339 0.89912,-1.34677 1.32512,-2.03547 0.98885,-1.59864 1.96235,-3.23072 3.27045,-4.58067 l 0,0 c 7.24498,-10.31998 11.32112,-22.81465 11.70936,-35.41787 0.77126,2.68853 0.50509,5.56229 0.1223,8.33294 -0.41446,2.99994 -1.09288,5.95611 -1.65489,8.93194 l 0,1e-5 c -1.99763,9.37345 -7.07262,17.91296 -13.52665,24.99799 z"
         style="display:inline;fill:#0c0c0c;fill-opacity:1"
         inkscape:path-effect="#path-effect501"
         inkscape:original-d="m 138.27195,161.27403 2.23356,-2.35158 c 1.3935,-0.67539 3.258,-5.20138 5.73116,-7.75367 7.25058,-10.32796 11.32151,-22.82733 11.70936,-35.41787 1.33794,4.66392 -0.50093,11.80229 -1.53259,17.26489 -2.0014,9.39113 -7.17671,18.02723 -13.52665,24.99799 z"
         id="path499"
         transform="translate(15.958672,18.047197)" />
      <path
         d="m 114.43427,170.04079 c -0.0573,-0.11675 -0.0699,-0.2617 -6e-4,-0.37176 0.0837,-0.13293 0.23041,-0.21199 0.37272,-0.27852 0.48949,-0.22881 1.02537,-0.33751 1.54577,-0.4829 1.48709,-0.41547 3.00629,-0.97553 4.05539,-2.10843 1.44711,-2.36086 4.01178,-3.75456 6.39955,-5.15683 1.18812,-0.69775 2.37678,-1.40848 3.4347,-2.29126 1.00065,-0.83499 1.87409,-1.8525 2.3817,-3.05284 -1.79301,1.29861 -3.43329,2.79608 -5.18826,4.14565 -0.40271,-0.0481 -0.79495,0.14373 -1.13671,0.36213 -1e-5,0 -1e-5,1e-5 -2e-5,1e-5 -0.42994,0.27475 -0.81577,0.61207 -1.21142,0.93424 -1e-5,10e-6 -2e-5,10e-6 -2e-5,2e-5 -0.75549,0.61518 -1.64857,1.33137 -2.59539,1.10172 0.0264,0.0759 0.0663,0.19239 -0.008,0.22176 -10e-6,1e-5 -2e-5,1e-5 -2e-5,1e-5 -0.0887,0.0348 -0.18514,-0.029 -0.27162,-0.0689 0,-1e-5 -1e-5,-1e-5 -2e-5,-1e-5 -0.38301,-0.17669 -0.74341,-0.39949 -1.12633,-0.57636 0,-1e-5 -1e-5,-1e-5 -2e-5,-1e-5 -0.4933,-0.22787 -1.01695,-0.41205 -1.55966,-0.43906 -0.57491,-0.0286 -1.15927,0.17212 -1.5801,0.56485 -0.34442,-0.0136 -0.68623,0.0599 -1.02371,0.13 -0.49291,0.10246 -0.98008,0.23081 -1.46536,0.36482 -1.07365,0.2965 -2.13667,0.63 -3.20503,0.94503 -0.40285,0.11878 -0.80594,0.23763 -1.21434,0.33566 -0.13074,0.0314 -0.26204,0.0614 -0.3952,0.0801 -0.0699,0.01 -0.14469,0.0278 -0.21012,0.001 -2e-5,-1e-5 -3e-5,-1e-5 -4e-5,-2e-5 -0.0141,-0.006 -0.0264,-0.0186 -0.0253,-0.0337 0.002,-0.0229 0.018,-0.0419 0.0332,-0.0591 10e-6,-1e-5 10e-6,-2e-5 2e-5,-2e-5 0.0725,-0.0823 0.16717,-0.14162 0.25855,-0.20227 0.44731,-0.29687 0.92583,-0.54346 1.40069,-0.79391 1e-5,0 2e-5,0 2e-5,0 0.18498,-0.0253 0.37272,-0.0435 0.55053,-0.10042 1e-5,0 1e-5,0 2e-5,0 1e-5,-1e-5 2e-5,-1e-5 2e-5,-1e-5 0.0257,-0.008 0.0628,-0.0123 0.0685,-0.0386 0.004,-0.02 -0.0281,-0.0263 -0.0478,-0.0319 -0.12292,-0.0351 -0.25268,-0.0378 -0.38023,-0.0464 -0.21717,-0.0147 -0.43476,-0.022 -0.65234,-0.0281 -0.91715,-0.0256 -1.8371,0.009 -2.7531,-0.0439 -0.53757,0.045 -1.07597,0.10328 -1.61527,0.091 -0.0749,-0.002 -0.16649,0.0201 -0.22025,-0.0321 0,0 -1e-5,-1e-5 -1e-5,-1e-5 -0.009,-0.009 -2.9e-4,-0.0237 0.01,-0.0317 0.0234,-0.0185 0.0517,-0.0296 0.0794,-0.0407 1e-5,-1e-5 1e-5,-1e-5 2e-5,-1e-5 0.27554,-0.11089 0.57021,-0.16577 0.85969,-0.23228 1e-5,0 3e-5,-1e-5 4e-5,-1e-5 0.45104,-0.10364 0.90413,-0.1981 1.35723,-0.29232 0.45391,-0.0944 0.90818,-0.18703 1.36141,-0.28463 0.29236,-0.063 0.58753,-0.11768 0.87224,-0.20921 10e-6,-1e-5 10e-6,-1e-5 2e-5,-1e-5 0.0286,-0.009 0.0575,-0.0181 0.0838,-0.0326 0,-1e-5 1e-5,-1e-5 2e-5,-2e-5 0.009,-0.005 0.0231,-0.0161 0.0147,-0.0226 -0.0168,-0.0129 -0.0409,-0.0104 -0.0621,-0.0115 -0.0488,-0.003 -0.0978,-0.001 -0.14666,6.1e-4 -0.53061,0.0195 -1.05827,0.0869 -1.58608,0.14481 1.57703,-1.03414 3.40027,-1.61985 5.14424,-2.33753 0,0 1e-5,0 2e-5,-1e-5 0.8265,-0.34012 1.65482,-0.68278 2.4355,-1.11791 0.4889,-0.2725 1.05891,-0.55604 1.24092,-1.08534 -2.75681,0.71008 -5.36411,1.90455 -8.08266,2.74939 -1e-5,0 -2e-5,1e-5 -4e-5,1e-5 -2.64663,0.82248 -5.51774,1.30579 -8.1718,0.50762 -1e-5,0 -2e-5,0 -2e-5,0 -1.35157,-0.0205 -2.713606,-0.006 -4.047411,-0.22547 -1.5e-5,0 -3e-5,0 -4.5e-5,0 -0.132408,-0.0218 -0.281232,-0.0243 -0.384523,-0.10994 -6e-6,0 -1.2e-5,-10e-6 -1.7e-5,-10e-6 -0.01921,-0.016 -0.02266,-0.0458 -0.0051,-0.0635 6e-6,-1e-5 1.1e-5,-1e-5 1.6e-5,-2e-5 0.03737,-0.0378 0.09172,-0.0529 0.142233,-0.0694 0.762742,-0.24904 1.582117,-0.26159 2.380849,-0.33789 2.96111,-0.6088 5.94999,-1.12025 8.84035,-2.00604 2.85809,-0.8759 5.65678,-2.14935 7.83771,-4.19371 -3.9299,1.89993 -8.23244,3.24604 -12.59685,3.16984 0.48177,-0.013 0.95589,-0.12107 1.42469,-0.23287 0.6456,-0.15397 1.28276,-0.34162 1.91566,-0.54149 1e-5,0 2e-5,-1e-5 3e-5,-1e-5 1.32358,-0.41799 2.63048,-0.88911 3.91668,-1.41091 1e-5,-1e-5 2e-5,-1e-5 2e-5,-1e-5 0.4406,-0.17875 0.88043,-0.36063 1.30712,-0.57042 0.11575,-0.0569 0.23214,-0.11381 0.33899,-0.18606 0.026,-0.0175 0.0528,-0.0352 0.0719,-0.0601 0.008,-0.0109 0.0115,-0.0282 -4.3e-4,-0.035 -0.0703,-0.0396 -0.1601,-1e-5 -0.23944,0.0147 -10e-6,0 -2e-5,1e-5 -3e-5,1e-5 0,0 -1e-5,0 -2e-5,0 -0.2002,0.037 -0.39719,0.0896 -0.59367,0.14305 -1e-5,1e-5 -1e-5,1e-5 -2e-5,1e-5 -1e-5,0 -1e-5,0 -2e-5,1e-5 -0.8158,0.22177 -1.6202,0.48339 -2.42376,0.74606 5.73913,-2.25416 11.15033,-5.50121 15.51554,-9.85596 7.81445,-7.11565 11.30216,-18.00083 11.81599,-28.55706 l -0.15472,-2.41522 c 0,-2e-5 0,-3e-5 0,-5e-5 0.0395,-0.72929 0.083,-1.45965 0.1891,-2.18226 v 0 c 0,-2e-5 1e-5,-3e-5 1e-5,-5e-5 0.0179,-0.12174 0.0357,-0.24385 0.0668,-0.36288 v 0 c 0.005,-0.0174 0.007,-0.0363 0.0172,-0.0512 0.004,-0.005 0.004,0.009 0.003,0.016 -0.0186,0.15903 -0.0938,0.30828 -0.1853,0.4397 -0.14145,0.20322 -0.38003,0.34165 -0.62741,0.33108 0,0 -1e-5,0 -2e-5,0 0.38752,-1.2161 0.0531,-2.53735 -0.25943,-3.77484 -0.14956,-0.59213 -0.32154,-1.17854 -0.46355,-1.77252 -0.0933,-0.39006 -0.22058,-0.79523 -0.13741,-1.18757 0,-10e-6 1e-5,-3e-5 1e-5,-4e-5 -0.50185,-1.63292 -1.17437,-3.22147 -1.46652,-4.9046 -1e-5,0 -1e-5,-10e-6 -2e-5,-10e-6 -1.01408,-0.46752 -1.64429,-1.550221 -1.83259,-2.650892 0,-8e-6 0,-1.5e-5 -1e-5,-2.3e-5 -0.0712,-0.416117 -0.0995,-0.852525 0.0254,-1.25579 0.0723,-0.233444 0.28198,-0.470946 0.51377,-0.393508 -2.55146,-4.164269 -5.76419,-7.903096 -9.35012,-11.218543 -4.77852,-4.437921 -10.86394,-7.256885 -17.10903,-9.135253 -0.56981,-0.189802 -1.14373,-0.36987 -1.70024,-0.595708 -0.0471,-0.0191 -0.0943,-0.03824 -0.13931,-0.06172 -1e-5,-3e-6 -2e-5,-7e-6 -2e-5,-1e-5 -0.0111,-0.0058 -0.0222,-0.01166 -0.0321,-0.01934 -0.004,-0.0032 -0.0102,-0.0072 -0.008,-0.01207 0.002,-0.005 0.009,-0.0047 0.0143,-0.0051 1e-5,0 1e-5,-10e-7 2e-5,-10e-7 0.012,-7.9e-4 0.0241,3.82e-4 0.0361,0.0016 0.045,0.0047 0.0894,0.01345 0.13371,0.02227 1e-5,1e-6 1e-5,3e-6 2e-5,4e-6 0.40833,0.08121 0.80985,0.193305 1.21222,0.300188 10e-6,2e-6 10e-6,4e-6 2e-5,6e-6 0.64255,0.170682 1.28324,0.348259 1.92339,0.527735 1e-5,4e-6 3e-5,8e-6 4e-5,1.2e-5 1.33393,0.373989 2.66559,0.756115 3.99365,1.150426 0,2e-6 1e-5,4e-6 2e-5,6e-6 0.35978,0.106821 0.7206,0.210568 1.07679,0.328809 l 0,0 c 10e-6,2e-6 10e-6,4e-6 2e-5,7e-6 0.03,0.0099 0.0602,0.01945 0.0893,0.03166 1e-5,2e-6 2e-5,5e-6 2e-5,8e-6 0.004,0.0018 0.0109,0.0022 0.0123,0.0067 m -0.0105,1.86e-4 c -0.0984,-0.01395 -0.19369,-0.04489 -0.28989,-0.06988 -6.70707,-3.443194 -14.416877,-4.797898 -21.932096,-4.196369 -7e-6,10e-7 -1.5e-5,10e-7 -2.3e-5,2e-6 -7.521812,0.602061 -14.897347,3.123206 -21.156417,7.337964 -0.358326,0.179082 -0.713341,0.377347 -1.101226,0.477414 -0.05684,0.01466 -0.13168,0.04628 -0.169892,0.0017 -0.03153,-0.03677 0.01554,-0.09089 0.04472,-0.129558 4e-6,-6e-6 9e-6,-1.2e-5 1.4e-5,-1.8e-5 0.169127,-0.224173 0.398346,-0.395213 0.615771,-0.572933 6e-6,-5e-6 1.2e-5,-1e-5 1.8e-5,-1.4e-5 0.364471,-0.297916 0.74149,-0.580154 1.121596,-0.857845 6e-6,-5e-6 1.3e-5,-9e-6 1.9e-5,-1.4e-5 0.919897,-0.672042 1.860958,-1.315142 2.820202,-1.929717 6e-6,-4e-6 1.3e-5,-8e-6 1.9e-5,-1.2e-5 0.40421,-0.258972 0.811592,-0.513286 1.228364,-0.751512 0.25696,-0.146878 0.51263,-0.302908 0.793683,-0.395697 7e-6,-2e-6 1.5e-5,-5e-6 2.2e-5,-7e-6 2.024772,-1.283403 4.323913,-2.06053 6.595678,-2.825977 1.039267,-0.35017 2.084349,-0.683515 3.116711,-1.053546 0.712189,-0.255272 1.440844,-0.497936 2.072533,-0.914283 0.463925,-0.104772 0.931509,-0.200431 1.382128,-0.35257 0.0644,-0.02174 0.149235,-0.02717 0.182994,-0.08617 0.0057,-0.0099 -0.0071,-0.0194 -0.01805,-0.02284 -0.02708,-0.0085 -0.05599,-0.0092 -0.08437,-0.01021 -1.5e-5,-10e-7 -3.1e-5,-10e-7 -4.6e-5,-2e-6 -0.301448,-0.0107 -0.601978,0.03645 -0.90147,0.07237 -7e-6,10e-7 -1.5e-5,2e-6 -2.3e-5,3e-6 -0.522835,0.06271 -1.043851,0.13985 -1.563956,0.222194 -1.285956,0.203593 -2.567247,0.439138 -3.837047,0.726787 -7e-6,2e-6 -1.4e-5,4e-6 -2.2e-5,5e-6 -0.548654,0.124288 -1.095714,0.257403 -1.633939,0.421057 -0.350148,0.106467 -0.708729,0.208405 -1.018167,0.403819 -0.935338,0.313534 -1.833467,0.727888 -2.732995,1.132872 -0.959365,0.431923 -1.911364,0.880076 -2.871075,1.311231 -0.298353,0.134036 -0.596039,0.270446 -0.902354,0.385124 -0.07046,0.02638 -0.140853,0.0566 -0.215513,0.0659 -0.01268,0.0016 -0.03023,0.0053 -0.03605,-0.0061 -3e-6,-7e-6 -7e-6,-1.4e-5 -10e-6,-2e-5 -0.0061,-0.01199 0.0077,-0.0248 0.01663,-0.0349 5e-6,-5e-6 10e-6,-1.1e-5 1.5e-5,-1.7e-5 0.05828,-0.06601 0.134051,-0.113963 0.205931,-0.164825 6e-6,-4e-6 1.2e-5,-9e-6 1.8e-5,-1.3e-5 0.150383,-0.106412 0.30523,-0.206362 0.460514,-0.305485 1.3e-5,-9e-6 2.6e-5,-1.7e-5 3.9e-5,-2.5e-5 0.593258,-0.378695 1.197516,-0.739848 1.801907,-1.10051 0.84656,-0.562115 1.794094,-0.953083 2.714424,-1.38393 1.144361,-0.535726 2.297035,-1.054916 3.421388,-1.631454 7e-6,-3e-6 1.3e-5,-7e-6 2e-5,-1e-5 0.405352,-0.207854 0.810842,-0.418491 1.18811,-0.673798 0.115283,-0.07802 0.229948,-0.159165 0.325565,-0.260328 6e-6,-6e-6 1.1e-5,-1.1e-5 1.6e-5,-1.7e-5 0.05109,-0.05406 0.110234,-0.121053 0.09408,-0.193656 -0.01607,-0.07221 -0.104577,-0.09922 -0.176805,-0.11523 -0.159097,-0.03526 -0.324224,-0.03101 -0.487073,-0.02507 -0.693236,0.02531 -1.379202,0.147558 -2.062487,0.267301 -7e-6,2e-6 -1.5e-5,4e-6 -2.2e-5,6e-6 -4.701978,1.279654 -8.704858,4.290192 -13.036387,6.522674 7.020564,-5.349858 15.401619,-9.188629 24.209377,-9.76543 -5.215058,-0.655348 -10.332866,1.412414 -15.306448,3.112353 -8e-6,2e-6 -1.5e-5,5e-6 -2.2e-5,7e-6 -1.724945,0.531367 -3.391749,1.236296 -5.09681,1.828372 -0.264328,0.09179 -0.528334,0.186462 -0.799974,0.253586 -0.05906,0.01459 -0.119397,0.03521 -0.179746,0.02755 -8e-6,-10e-7 -1.5e-5,-2e-6 -2.3e-5,-3e-6 l 0,0 c -0.01032,-0.0013 -0.02332,-0.0061 -0.02297,-0.01646 0,-1.6e-5 10e-7,-3.1e-5 10e-7,-4.6e-5 5.96e-4,-0.01587 0.01477,-0.0277 0.02616,-0.03877 0.1865,-0.181379 0.435423,-0.284038 0.663617,-0.408971 1.4e-5,-7e-6 2.7e-5,-1.5e-5 4.1e-5,-2.2e-5 0.566472,-0.310144 1.143425,-0.600718 1.720728,-0.890204 6e-6,-3e-6 1.3e-5,-7e-6 2e-5,-1e-5 0.207725,-0.931198 0.896773,-1.687603 1.67644,-2.23751 1.3e-5,-9e-6 2.5e-5,-1.8e-5 3.8e-5,-2.6e-5 0.960376,-0.677354 2.060722,-1.128972 3.166611,-1.526641 2.281923,-0.82056 4.702472,-1.278287 6.884568,-2.336092 5.4718,-0.947009 11.017759,-2.23472 16.516928,-1.462345 9.05068,1.0983 17.92652,4.214992 25.32441,9.543435 -1.99419,-1.809304 -4.37151,-3.144248 -6.74255,-4.420388 -2.77069,-1.49124 -5.63968,-2.846799 -8.6763,-3.671096 -10e-6,-4e-6 -3e-5,-8e-6 -4e-5,-1.2e-5 -11.00737,-3.597327 -23.236111,-3.455918 -34.092683,0.573697 -1.753807,0.164195 -3.332579,1.10529 -4.863734,1.976131 -1.3e-5,8e-6 -2.6e-5,1.6e-5 -3.9e-5,2.3e-5 -0.75008,0.426607 -1.488228,0.874015 -2.24047,1.296798 -0.504913,0.283777 -1.007604,0.60011 -1.572373,0.728571 7.162176,-5.317144 16.061246,-7.967333 24.953805,-8.668177 12.411594,-0.474142 25.075584,2.994442 35.057034,10.386543 8.472,5.89445 15.03332,14.331771 19.37805,23.693539 10e-6,1.4e-5 10e-6,2.8e-5 2e-5,4.2e-5 3.20186,7.752152 4.94982,16.112522 5.05177,24.499262 1e-5,-1e-5 1e-5,-3e-5 2e-5,-4e-5 0.96716,-2.20299 0.68564,-4.744 0.47636,-7.14084 0,-1e-5 0,-3e-5 0,-4e-5 -0.24598,-2.81709 -0.72143,-5.60965 -1.26713,-8.38431 -3.30476,-12.744193 -11.47869,-23.892732 -21.58973,-32.324979 -8.61382,-5.803882 -18.28668,-10.603388 -28.65057,-11.29094 0.31575,-0.261889 0.74367,-0.342627 1.1525,-0.376485 0.5841,-0.04837 1.17219,0.0061 1.75292,0.08523 1.5312,0.208682 3.02948,0.60845 4.5209,1.013153 10e-6,4e-6 3e-5,8e-6 4e-5,1.2e-5 1.52092,0.412707 3.03214,0.862739 4.56402,1.232672 0.59717,0.14421 1.1978,0.278593 1.80677,0.359615 0.40779,0.05425 0.82828,0.105401 1.22788,0.0076 -0.007,-0.07435 -0.0147,-0.15014 -1.4e-4,-0.223375 1e-5,-1.5e-5 1e-5,-3e-5 1e-5,-4.5e-5 0.006,-0.03129 0.0238,-0.06865 0.0557,-0.06707 0.0434,0.0021 0.0772,0.03807 0.10855,0.06821 0.0581,0.05586 0.10866,0.119012 0.15839,0.182432 0.37109,0.473241 0.69898,0.979259 1.07243,1.450634 0.47392,0.598174 0.99367,1.173636 1.63128,1.592999 0.58725,0.386243 1.32842,0.597686 1.99906,0.387245 12.62585,5.603867 22.40433,16.659576 28.02794,29.276644 5.63333,12.524625 6.29539,27.219485 1.79805,40.195405 -1.61767,5.97522 -5.25535,11.15751 -8.21566,16.59411 -0.0978,-0.14595 -0.25972,-0.26906 -0.43338,-0.24235 -1e-5,0 -3e-5,0 -4e-5,0 -0.20601,0.0317 -0.36985,0.1874 -0.51362,0.33832 -10e-6,1e-5 -2e-5,2e-5 -3e-5,3e-5 -0.50644,0.53167 -0.86036,1.18787 -1.23669,1.81837 0,1e-5 -1e-5,2e-5 -2e-5,4e-5 -0.4716,0.79011 -0.93203,1.58853 -1.46313,2.33994 -1e-5,1e-5 -2e-5,2e-5 -3e-5,3e-5 -0.45074,0.63773 -0.94079,1.28642 -1.62627,1.66056 -1e-5,10e-6 -3e-5,10e-6 -4e-5,2e-5 -0.0153,0.20621 -0.16443,0.3765 -0.3075,0.52578 -0.22346,0.23316 -0.48149,0.43031 -0.74155,0.62179 -0.69284,0.51012 -1.4219,0.96928 -2.11934,1.4731 -1e-5,1e-5 -2e-5,1e-5 -3e-5,2e-5 -0.67966,0.49097 -1.36146,1.00588 -1.85782,1.68161 -0.3759,0.51175 -0.56986,1.21642 -0.26458,1.77319 -0.61001,-0.27617 -1.32817,-0.0584 -1.9289,0.2374 -10e-6,1e-5 -2e-5,2e-5 -4e-5,2e-5 -0.83751,0.41246 -1.58104,0.99083 -2.3154,1.56727 -1.54138,1.20991 -2.98996,2.67742 -4.86624,3.24251 0.29704,-0.33855 0.61332,-0.67901 0.77771,-1.09833 0.0365,-0.0931 0.0666,-0.19678 0.0371,-0.29235 -0.0225,-0.0729 -0.0895,-0.1244 -0.16202,-0.14816 -2e-5,-1e-5 -3e-5,-1e-5 -5e-5,-2e-5 -0.26151,-0.0857 -0.54744,-0.006 -0.81574,0.0551 -0.43946,0.10029 -0.8682,0.2425 -1.29463,0.38856 -1.06368,0.3643 -2.11073,0.77638 -3.1784,1.12882 -0.82911,0.2737 -1.68576,0.63147 -2.5513,0.51668 -0.31234,0.11312 -0.58291,0.31839 -0.88505,0.45646 -0.30569,0.1397 -0.6779,0.21144 -0.96458,0.036 m 21.04084,-15.52847 c 2.06429,-2.00534 3.75772,-4.36086 5.34786,-6.75965 1.31187,-1.979 2.64126,-3.97991 3.49497,-6.19545 l 0,0 c -1.16449,2.34116 -2.76924,4.43257 -4.31739,6.53977 -0.73541,1.00096 -1.48103,1.9945 -2.20402,3.00447 l -1e-5,0 c -0.44043,0.61525 -0.92745,1.21218 -1.22481,1.90796 -1.21143,0.89855 -2.30481,1.96941 -3.2001,3.18325 0,0 0,0 0,1e-5 -0.0849,0.11517 -0.20185,0.22568 -0.21765,0.36792 0,0 0,0 0,0 -0.003,0.0235 0.0236,0.0353 0.0463,0.0285 0.0616,-0.0187 0.11384,-0.0597 0.16608,-0.0973 0.78271,-0.5639 1.43104,-1.29292 2.10878,-1.97942 z M 87.108727,69.874921 c 0.730119,-0.09285 1.448305,-0.265937 2.154318,-0.473879 0.566189,-0.166759 1.136891,-0.338807 1.65632,-0.619115 0.06873,-0.03709 0.136949,-0.07625 0.197039,-0.126146 0,0 10e-7,0 10e-7,0 0.03275,-0.0272 0.07066,-0.0585 0.0731,-0.101007 0,0 0,0 0,0 0.002,-0.03505 -0.03623,-0.05756 -0.06941,-0.06902 -0.07348,-0.02539 -0.152764,-0.02811 -0.230481,-0.0302 -0.978134,-0.02622 -1.943202,0.218636 -2.903903,0.404347 l 0,0 c -0.88162,-0.01372 -1.767779,0.12944 -2.592763,0.440633 l -10e-7,10e-7 c -0.519274,0.195875 -1.066301,0.423877 -1.402367,0.865548 0,0 0,0 0,0 -0.07382,0.09702 -0.141114,0.234764 -0.07106,0.334539 0.09227,0.131415 0.286441,0.132575 0.447012,0.131673 0.95241,-0.0053 1.857554,-0.404504 2.742199,-0.757374 z m -11.823019,-0.22286 c 0.93894,-0.585495 1.860487,-1.213638 2.879782,-1.644278 1.186373,-0.501229 2.450423,-0.788574 3.691497,-1.132737 0.409377,-0.219498 0.824225,-0.432388 1.206501,-0.69627 h 0 c 0,0 0,0 0,0 0.06516,-0.04498 0.140368,-0.08498 0.179178,-0.153983 v 0 l 0,-10e-7 c 0.0064,-0.01136 0.0087,-0.02746 -0.0018,-0.03518 0,0 0,0 0,0 -0.01581,-0.01163 -0.03755,-0.01038 -0.05717,-0.0099 -0.240416,0.0062 -0.469391,0.10285 -0.698762,0.175148 -0.420001,0.132383 -0.835443,0.27879 -1.250377,0.42629 -1.030519,0.366327 -2.055284,0.748706 -3.086228,1.113834 -0.431749,0.152912 -0.864194,0.304175 -1.301164,0.441456 -0.257469,0.08089 -0.514601,0.176412 -0.783406,0.200422 -0.329536,-0.0042 -0.624753,0.20009 -0.890658,0.394787 l 0,10e-7 c -0.302704,0.221641 -0.581557,0.479055 -0.809453,0.777078 0,0 0,10e-7 0,10e-7 -0.07828,0.102372 -0.15492,0.209527 -0.194793,0.332076 -0.02183,0.06708 -0.02251,0.156931 0.04089,0.187863 0.107015,0.05221 0.235373,0.0013 0.348356,-0.03628 0.25439,-0.08463 0.492856,-0.210887 0.727621,-0.340352 z"
         style="display:inline;fill:#0c0c0c;fill-opacity:1"
         inkscape:path-effect="#path-effect499"
         inkscape:original-d="m 114.43427,170.04079 c -0.57039,-1.16137 3.69366,-0.7799 5.97328,-3.24161 2.8479,-4.64616 10.14557,-5.60508 12.21595,-10.50093 -1.64266,1.18972 -3.85654,3.12156 -5.18826,4.14565 -1.46002,-0.17451 -3.15392,2.8322 -4.94356,2.39812 0.37411,1.07517 -2.60935,-2.10523 -4.54626,-0.29769 -1.90754,-0.0751 -11.32783,3.65873 -5.84672,0.76789 2.28918,-0.31274 -2.44775,-0.24545 -3.21436,-0.28942 -6.72481,0.56342 7.64374,-1.68079 1.00789,-0.95327 2.44737,-1.60487 8.33037,-3.11494 8.82068,-4.54079 -5.28962,1.36247 -10.84596,4.88356 -16.2545,3.25702 -2.833071,-0.0429 -7.322067,-0.2896 -1.91403,-0.80622 5.69849,-1.1716 12.31643,-2.11126 16.67806,-6.19975 -3.84015,1.85654 -8.69855,3.2379 -12.59685,3.16984 2.83611,-0.0766 14.61016,-5.03982 5.71768,-2.133 5.07532,-1.99344 11.21805,-5.56877 15.51554,-9.85596 7.93737,-7.22758 11.30694,-18.099 11.81599,-28.55706 l -0.15472,-2.41522 c 0.24476,-4.51987 0.67009,-1.758 -0.53676,-1.80962 0.67249,-2.11039 -1.07752,-5.71086 -0.86038,-6.73497 -0.73624,-2.39558 -1.12373,-2.92974 -1.46652,-4.9046 -2.19813,-1.01338 -2.25768,-4.622345 -1.2935,-4.300223 -2.64207,-4.312157 -5.79955,-7.935788 -9.35012,-11.218543 -4.78538,-4.444295 -10.90689,-7.269802 -17.10903,-9.135253 -7.248265,-2.414382 8.98387,2.300287 6.31145,1.605823 -13.545854,-6.954006 -30.57695,-5.283505 -43.088536,3.141597 -4.447023,2.222512 4.025308,-3.719777 5.353311,-4.158194 3.634695,-2.303853 10.025472,-3.63415 11.784922,-4.793806 5.705188,-1.288451 -5.881964,0.357714 -7.491961,1.374448 -2.719992,0.911766 -10.799882,5.178097 -4.272935,1.283232 2.027674,-1.346373 12.662078,-5.355921 5.017238,-4.01619 -4.890146,1.330858 -8.725785,4.300973 -13.036409,6.52268 6.995934,-5.331089 15.351282,-9.185333 24.209377,-9.76543 -5.245914,-0.659226 -10.477399,1.461815 -15.30647,3.11236 -2.482005,0.764579 -9.879834,3.859406 -3.688962,0.755025 0.806297,-3.614496 8.199389,-4.389886 11.727657,-6.100269 5.446397,-0.942612 10.863106,-2.256441 16.516928,-1.462345 9.07758,1.101565 17.87277,4.176275 25.32441,9.543435 -2.67198,-2.424254 -10.16852,-6.666282 -15.41889,-8.091496 -11.03972,-3.607899 -23.174841,-3.478659 -34.092683,0.573697 -2.87202,0.268885 -7.205731,3.666958 -8.676616,4.001523 7.166499,-5.320354 16.146062,-7.974018 24.953805,-8.668177 12.417754,-0.474377 25.007884,2.944308 35.057034,10.386543 8.45416,5.882036 15.06154,14.39256 19.37807,23.693581 3.19773,7.742162 4.95191,16.284172 5.05177,24.499262 1.38029,-3.14395 0.15363,-10.72343 -0.79075,-15.52523 -3.31205,-12.772323 -11.55536,-23.95667 -21.58973,-32.324979 -8.57699,-5.779067 -18.16308,-10.595188 -28.65057,-11.29094 2.09803,-1.74013 12.69726,2.891285 15.02503,2.32185 -0.15485,-1.64595 2.1996,4.277703 5.02528,3.39103 12.70919,5.640857 22.43197,16.721583 28.02794,29.276644 5.66107,12.586295 6.31755,27.155545 1.79805,40.195405 -1.63669,6.04547 -5.28258,11.20753 -8.21566,16.59411 -1.04157,-1.55398 -3.02409,4.68741 -5.27325,5.91496 -0.0933,1.26108 -6.59212,3.7022 -5.29082,6.07549 -2.21162,-1.00128 -6.06975,4.13138 -9.11058,5.0472 3.4658,-3.95007 -4.95702,0.84607 -7.18732,0.55029 -0.50889,0.18431 -1.2347,0.86876 -1.84963,0.49248 z m 21.04084,-15.52847 c 3.48528,-3.38575 7.82807,-10.32161 8.84283,-12.9551 -1.82855,3.67622 -7.10242,9.94577 -7.74623,11.4522 -2.50006,1.85435 -5.668,6.13336 -1.09662,1.5029 z M 87.108727,69.874921 c 2.67639,-0.340357 7.192984,-2.235953 0.87698,-1.01502 -3.989315,-0.0621 -6.372041,3.206911 -0.87698,1.01502 z m -11.823019,-0.22286 c 2.836553,-1.768791 2.652438,-1.690278 6.571279,-2.777015 4.903378,-2.629067 -4.632139,1.358131 -5.793238,1.461841 -0.986418,-0.01267 -3.287863,2.699255 -0.778041,1.315174 z"
         id="path497"
         transform="translate(15.958672,18.047197)" />
      <path
         d="m 131.88854,96.418621 c -2.14563,-3.468553 -4.89526,-6.553437 -7.99578,-9.203225 -2.71055,-2.675777 -6.00606,-4.66826 -9.38256,-6.430685 -0.85499,-0.610765 -1.84273,-1.007082 -2.81642,-1.40203 -1.21011,-0.490848 -2.4416,-0.927004 -3.67369,-1.359747 l 0,0 c -1.01734,-0.357317 -2.0415,-0.697463 -3.0414,-1.101016 0,-1e-6 0,-1e-6 0,-1e-6 -0.27993,-0.112978 -0.56462,-0.221908 -0.81809,-0.385843 0,0 0,-10e-7 -1e-5,-10e-7 -0.0584,-0.03781 -0.12321,-0.0765 -0.15193,-0.139918 -0.0175,-0.03862 0.0125,-0.08125 0.0505,-0.100074 6.52706,1.475399 12.51661,4.76663 18.00175,8.599706 0.0775,-0.05722 0.18754,-9.09e-4 0.27422,0.04118 0.16611,0.08065 0.31636,0.190363 0.46336,0.302116 0,10e-7 0,2e-6 0,2e-6 0.43045,0.327241 0.82681,0.697038 1.21486,1.073579 0,10e-7 0,2e-6 1e-5,2e-6 0.39099,0.379396 0.77155,0.769826 1.13362,1.176916 0.12474,0.140247 0.24814,0.281936 0.36182,0.431286 0,10e-7 0,2e-6 0,3e-6 v 0 c 0.0525,0.06895 0.13783,0.135546 0.13207,0.222007 0,2e-6 0,3e-6 0,4e-6 -0.006,-0.0053 -0.0117,-0.01056 -0.0173,-0.01609 0.003,-0.0019 0.006,7.39e-4 0.0101,0.0034 0.0136,0.0099 0.0268,0.02027 0.0401,0.03064 0.0497,0.03887 0.0986,0.07867 0.14739,0.118595 l 0,0 c 0,10e-7 0,10e-7 0,2e-6 0.1759,0.143866 0.3495,0.290513 0.52214,0.438264 0.55159,0.472061 1.09235,0.95683 1.62035,1.455139 0.60883,0.574603 1.2032,1.165813 1.75348,1.796725 0.43422,0.497851 0.8751,1.010789 1.12467,1.622439 0.48654,0.70608 1.1384,1.286678 1.63504,1.985694 0,10e-7 1e-5,2e-6 1e-5,3e-6 0.16312,0.229592 0.40529,0.497735 0.30399,0.760525 -0.0375,0.09739 -0.15284,0.138241 -0.25657,0.149846 -0.21272,0.0238 -0.42706,-0.02155 -0.63569,-0.06942 z"
         style="display:inline;fill:#0c0c0c;fill-opacity:1"
         inkscape:path-effect="#path-effect509"
         inkscape:original-d="m 131.88854,96.418621 c -1.92521,-3.112223 -4.92459,-6.578503 -7.99578,-9.203225 -2.92261,-2.885117 -5.37048,-4.336505 -9.38256,-6.430685 -2.52168,-1.801363 -11.3016,-4.067166 -10.45104,-4.48863 6.50499,1.470411 12.60535,4.828644 18.00175,8.599706 0.41703,-0.30777 3.59617,3.003748 3.57996,3.247094 -0.39574,-0.35701 4.42608,3.550198 5.20089,5.44909 0.69258,1.005082 3.31861,3.347886 1.04678,2.82665 z"
         id="path507"
         transform="translate(15.958672,18.047197)" />
    </g>
  </g>
</svg>
